<svg width="40" height="40" viewBox="0 0 40 40" fill="none" xmlns="http://www.w3.org/2000/svg">
<g clip-path="url(#clip0_171_177)">
<path fill-rule="evenodd" clip-rule="evenodd" d="M27.45 40V24.51H32.65L33.428 18.474H27.448V14.62C27.448 12.872 27.934 11.68 30.442 11.68H33.638V6.28C32.0902 6.11529 30.5345 6.03517 28.978 6.04C24.37 6.04 21.216 8.854 21.216 14.02V18.474H16V24.51H21.214V40H2.208C0.988 40 0 39.012 0 37.792V2.208C0 0.988 0.988 0 2.208 0H37.792C39.012 0 40 0.988 40 2.208V37.792C40 39.012 39.012 40 37.792 40H27.45Z" fill="#69C673" fill-opacity="0.74"/>
</g>
<defs>
<clipPath id="clip0_171_177">
<rect width="40" height="40" rx="3" fill="white"/>
</clipPath>
</defs>
</svg>
