<svg width="40" height="40" viewBox="0 0 40 40" fill="none" xmlns="http://www.w3.org/2000/svg">
<rect x="0.5" y="0.5" width="39" height="39" stroke="white"/>
<path fill-rule="evenodd" clip-rule="evenodd" d="M20.85 14.66V17.4883C21.4423 16.5861 22.2587 15.8532 23.2193 15.3612C24.1799 14.8692 25.2518 14.6351 26.33 14.6817C32.0884 14.6817 33.3334 18.2817 33.3334 22.965V32.5H28V24.0467C28 22.03 27.5934 19.4367 24.4534 19.4367C21.4084 19.4367 20.8884 21.6317 20.8884 23.8967V32.5H15.5717V14.66H20.85ZM12 10.1767C11.9994 10.705 11.8428 11.2214 11.5498 11.6611C11.2569 12.1008 10.8407 12.4442 10.3534 12.6483C9.86624 12.8508 9.3299 12.9038 8.81258 12.8005C8.29527 12.6972 7.82039 12.4423 7.44836 12.0683C7.07564 11.6941 6.82189 11.218 6.71902 10.6999C6.61614 10.1819 6.66875 9.64496 6.87021 9.15671C7.07168 8.66846 7.413 8.25068 7.85127 7.9559C8.28954 7.66112 8.80519 7.5025 9.33336 7.5C9.6844 7.5 10.032 7.5693 10.3562 7.70394C10.6804 7.83858 10.9748 8.0359 11.2225 8.28458C11.4703 8.53326 11.6665 8.82842 11.7999 9.15311C11.9333 9.4778 12.0013 9.82563 12 10.1767Z" fill="white"/>
<path d="M12.0001 14.6817H6.66675V32.5H12.0001V14.6817Z" fill="white"/>
</svg>
