<svg width="41" height="41" viewBox="0 0 41 41" fill="none" xmlns="http://www.w3.org/2000/svg">
<path d="M35.7778 0C36.9639 0 38.1014 0.471179 38.9401 1.30988C39.7788 2.14859 40.25 3.28612 40.25 4.47222V35.7778C40.25 36.9639 39.7788 38.1014 38.9401 38.9401C38.1014 39.7788 36.9639 40.25 35.7778 40.25H4.47222C3.28612 40.25 2.14859 39.7788 1.30988 38.9401C0.471179 38.1014 0 36.9639 0 35.7778V4.47222C0 3.28612 0.471179 2.14859 1.30988 1.30988C2.14859 0.471179 3.28612 0 4.47222 0H35.7778ZM31.6597 34.6597C33.3166 34.6597 34.6597 33.3166 34.6597 31.6597V22.8083C34.6597 20.875 33.8917 19.0208 32.5246 17.6537C31.1575 16.2866 29.3034 15.5186 27.37 15.5186C26.0581 15.5186 24.597 16.0726 23.4647 16.9894C23.0356 17.3368 22.1822 17.0431 22.1822 16.491V16.491C22.1822 16.1886 21.9371 15.9435 21.6347 15.9435H18.9435C17.2866 15.9435 15.9435 17.2866 15.9435 18.9435V31.6597C15.9435 33.3166 17.2866 34.6597 18.9435 34.6597H19.1822C20.8391 34.6597 22.1822 33.3166 22.1822 31.6597V23.6357C22.1822 21.9139 23.5686 20.5051 25.2904 20.5051C26.1207 20.5051 26.917 20.835 27.5041 21.4221C28.0911 22.0092 28.421 22.8054 28.421 23.6357V31.6597C28.421 33.3166 29.7641 34.6597 31.421 34.6597H31.6597ZM8.67611 12.4328C9.67244 12.4328 10.628 12.037 11.3325 11.3325C12.037 10.628 12.4328 9.67244 12.4328 8.67611C12.4328 6.59653 10.7557 4.89708 8.67611 4.89708C7.67385 4.89708 6.71264 5.29523 6.00393 6.00393C5.29523 6.71264 4.89708 7.67385 4.89708 8.67611C4.89708 10.7557 6.59653 12.4328 8.67611 12.4328ZM8.78431 34.6597C10.4412 34.6597 11.7843 33.3166 11.7843 31.6597V18.9435C11.7843 17.2866 10.4412 15.9435 8.78431 15.9435H8.59028C6.93342 15.9435 5.59028 17.2866 5.59028 18.9435V31.6597C5.59028 33.3166 6.93342 34.6597 8.59028 34.6597H8.78431Z" fill="#68C29C"/>
</svg>
