<svg width="40" height="40" viewBox="0 0 40 40" fill="none" xmlns="http://www.w3.org/2000/svg">
<path d="M5 8.33333V7.08333C4.66848 7.08333 4.35054 7.21502 4.11612 7.44944C3.8817 7.68387 3.75 8.00181 3.75 8.33333H5ZM35 8.33333H36.25C36.25 8.00181 36.1183 7.68387 35.8839 7.44944C35.6495 7.21502 35.3315 7.08333 35 7.08333V8.33333ZM5 9.58333H35V7.08333H5V9.58333ZM33.75 8.33333V28.3333H36.25V8.33333H33.75ZM31.6667 30.4167H8.33333V32.9167H31.6667V30.4167ZM6.25 28.3333V8.33333H3.75V28.3333H6.25ZM8.33333 30.4167C7.18333 30.4167 6.25 29.4833 6.25 28.3333H3.75C3.75 29.5489 4.23289 30.7147 5.09243 31.5742C5.95197 32.4338 7.11776 32.9167 8.33333 32.9167V30.4167ZM33.75 28.3333C33.75 29.4833 32.8167 30.4167 31.6667 30.4167V32.9167C32.8822 32.9167 34.048 32.4338 34.9076 31.5742C35.7671 30.7147 36.25 29.5489 36.25 28.3333H33.75Z" fill="#222222"/>
<path d="M5 8.33333L20 23.3333L35 8.33333" stroke="#222222" stroke-width="2.5" stroke-linecap="round" stroke-linejoin="round"/>
</svg>
