<svg width="40" height="40" viewBox="0 0 40 40" fill="none" xmlns="http://www.w3.org/2000/svg">
<path d="M7.9667 25.45L12.2 24.9667C13.2167 24.85 14.2167 25.2 14.9334 25.9167L18 28.9833C22.7167 26.5833 26.5834 22.7333 28.9834 18L25.9 14.9167C25.5455 14.5625 25.2758 14.1325 25.1112 13.6591C24.9467 13.1857 24.8916 12.6811 24.95 12.1833L25.4334 7.98333C25.6334 6.3 27.05 5.03333 28.75 5.03333H31.6334C33.5167 5.03333 35.0834 6.6 34.9667 8.48333C34.0834 22.7167 22.7 34.0833 8.48337 34.9667C6.60003 35.0833 5.03337 33.5167 5.03337 31.6333V28.75C5.0167 27.0667 6.28337 25.65 7.9667 25.45Z" fill="#222222"/>
</svg>
