<svg width="40" height="40" viewBox="0 0 40 40" fill="none" xmlns="http://www.w3.org/2000/svg">
<g clip-path="url(#clip0_171_185)">
<g clip-path="url(#clip1_171_185)">
<path d="M36.25 0H3.75C1.6875 0 0 1.6875 0 3.75V36.25C0 38.3125 1.6875 40 3.75 40H36.25C38.3125 40 40 38.3125 40 36.25V3.75C40 1.6875 38.3125 0 36.25 0ZM28.585 32.21C27.405 32.765 26.335 33.155 25.3825 33.3825C24.3643 33.6111 23.3235 33.7235 22.28 33.7175C21.015 33.7175 20.2725 33.56 19.3025 33.24C18.3325 32.92 17.505 32.4675 16.8175 31.88C16.13 31.285 15.66 30.66 15.395 29.9975C15.13 29.335 14.9975 28.3725 14.9975 27.1075V17.4275H11.2475V13.52C12.3325 13.1675 13.5925 12.66 14.3575 12.005C15.13 11.3475 15.755 10.56 16.2175 9.6375C16.6875 8.715 17.0075 7.545 17.1875 6.1225H21.11V12.4975H27.5V17.4275H21.1175V24.505C21.1175 26.1075 21.095 27.0275 21.265 27.4825C21.435 27.9375 21.86 28.405 22.32 28.67C22.93 29.0375 23.6325 29.2175 24.415 29.2175C25.8125 29.2175 27.205 28.765 28.5875 27.8575L28.585 32.21Z" fill="#518FB1"/>
</g>
</g>
<defs>
<clipPath id="clip0_171_185">
<rect width="40" height="40" rx="3" fill="white"/>
</clipPath>
<clipPath id="clip1_171_185">
<rect width="40" height="40" fill="white"/>
</clipPath>
</defs>
</svg>
