<svg width="40" height="40" viewBox="0 0 40 40" fill="none" xmlns="http://www.w3.org/2000/svg">
<path d="M35.7143 0H4.28571C1.91964 0 0 1.91964 0 4.28571V35.7143C0 38.0804 1.91964 40 4.28571 40H35.7143C38.0804 40 40 38.0804 40 35.7143V4.28571C40 1.91964 38.0804 0 35.7143 0ZM31.8171 13.82C31.531 14.0501 31.3646 14.4014 31.3659 14.7685C31.3661 14.8251 31.3661 14.8815 31.3661 14.9375C31.3661 22.6786 25.4732 31.5982 14.7054 31.5982C11.8915 31.5982 9.25067 30.9061 6.93486 29.6848C6.62673 29.5223 6.77664 29.0446 7.125 29.0446V29.0446C8.2216 29.0446 9.28247 28.896 10.2893 28.6171C11.7835 28.2031 11.3357 25.8554 10.2628 24.7361C9.8203 24.2744 9.45332 23.7406 9.18141 23.1539C9.0415 22.8521 9.30448 22.5389 9.63654 22.5593V22.5593C10.1121 22.5887 10.1672 21.9234 9.75686 21.6813C8.03031 20.6625 6.875 18.7849 6.875 16.625V16.625C6.875 16.5931 6.90942 16.5729 6.93745 16.5882C7.17758 16.7195 7.43005 16.8346 7.6923 16.9319C8.19099 17.1169 8.47995 16.4492 8.15217 16.0303C7.94523 15.7658 7.76077 15.4831 7.60131 15.185C7.14639 14.3343 6.90914 13.3843 6.91071 12.4196V12.4196C6.91071 10.9204 8.72533 10.7048 9.86965 11.6734C11.6221 13.1568 13.6869 14.2817 15.9475 14.942C17.8358 15.4936 19.3485 13.5699 20.1724 11.7836C21.1114 9.74778 23.1755 8.39286 25.4911 8.39286C26.9321 8.39286 28.2494 8.9072 29.2706 9.76909C29.5971 10.0446 30.0234 10.1979 30.4375 10.0928C31.0084 9.94781 31.5661 9.75845 32.1029 9.52997C32.5985 9.31903 33.1122 9.77209 32.8179 10.2233C32.6966 10.4092 32.5649 10.5879 32.4235 10.7585C32.1234 11.1208 32.4313 11.7883 32.8823 11.6543V11.6543C33.303 11.5292 33.6532 12.0049 33.3642 12.3352C32.8926 12.8739 32.3742 13.372 31.8171 13.82Z" fill="#5AB1A2"/>
</svg>
