<svg width="40" height="40" viewBox="0 0 40 40" fill="none" xmlns="http://www.w3.org/2000/svg">
<rect x="0.5" y="0.5" width="39" height="39" stroke="white"/>
<path d="M35.4001 10.448C34.2468 10.9589 33.0235 11.2941 31.7709 11.4424C33.0903 10.653 34.0776 9.41072 34.5489 7.9472C33.3087 8.68342 31.9516 9.20184 30.5365 9.48C29.9452 8.84937 29.2308 8.34688 28.4374 8.00368C27.644 7.66047 26.7885 7.48386 25.9241 7.4848C22.4345 7.4848 19.6049 10.3136 19.6049 13.804C19.6049 14.2988 19.6609 14.7816 19.7689 15.2444C14.5169 14.9808 9.86088 12.4648 6.74408 8.6412C6.18211 9.60562 5.88681 10.7022 5.88848 11.8184C5.88765 12.8588 6.14383 13.8833 6.63426 14.8009C7.12468 15.7184 7.83417 16.5006 8.69968 17.078C7.69636 17.0461 6.71515 16.7751 5.83768 16.2876C5.83688 16.314 5.83688 16.34 5.83688 16.3672C5.83688 19.428 8.01488 21.982 10.9053 22.5632C9.97458 22.8152 8.99876 22.8521 8.05168 22.6712C8.85568 25.1812 11.1893 27.0088 13.9545 27.06C11.716 28.8166 8.95188 29.7694 6.10648 29.7652C5.59648 29.7652 5.09368 29.7356 4.59888 29.6768C7.48821 31.5333 10.8509 32.5186 14.2853 32.5152C25.9085 32.5152 32.2645 22.8868 32.2645 14.5372C32.2645 14.2636 32.2581 13.9904 32.2461 13.7188C33.4839 12.8252 34.552 11.7175 35.4001 10.448Z" fill="white"/>
</svg>
