<svg width="40" height="40" viewBox="0 0 40 40" fill="none" xmlns="http://www.w3.org/2000/svg">
<path d="M19.75 15C20.25 15 20.5 14.5 20.5 13.75V10.25C20.5 9.5 20.25 9 19.75 9C19.25 9 19 9.5 19 10.25V13.75C19 14.5 19.25 15 19.75 15ZM17.75 29.75C17.5 30.25 17 30.5 16.75 30.5C16.5 30.5 16.5 30.5 16.5 30.25V23.5H15V30C15 30.5 15 31 15.25 31.25C15.5 31.75 15.75 31.75 16.25 31.75C16.75 31.75 17.25 31.5 18 30.75V31.75H19.5V23.5H17.75V29.75ZM9.5 22.25H11.25V31.75H13V22.25H14.75V20.5H9.5V22.25ZM23.5 23.25C23 23.25 22.5 23.75 22 24.25V20.5H20.5V31.5H22V30.75C22.5 31.25 23 31.75 23.5 31.75C24 31.75 24.5 31.5 24.75 30.75C24.75 30.5 25 29.75 25 29V25.75C25 25 25 24.5 24.75 24C24.5 23.75 24.25 23.25 23.5 23.25ZM23.5 29.25C23.5 30 23.25 30.25 22.75 30.25C22.5 30.25 22.25 30.25 22 30V25C22.25 24.75 22.5 24.75 22.75 24.75C23.25 24.75 23.5 25.25 23.5 26V29.25ZM28.25 23.25C27.5 23.25 27 23.5 26.5 24C26.25 24.5 26 25 26 26V29C26 30 26.25 30.5 26.5 31C27 31.5 27.5 31.75 28.25 31.75C29 31.75 29.75 31.5 30 30.75C30.25 30.5 30.25 30.25 30.25 29.75V28.5H28.75V29.5C28.75 30 28.5 30 28 30C27.5 30 27.25 29.5 27.25 28.75V27.25H30.25V25.5C30.25 24.5 30 24 29.75 23.5C29.75 23.75 29 23.25 28.25 23.25ZM29 26.5H27.5V25.75C27.5 25 27.75 24.5 28.25 24.5C28.75 24.5 29 25 29 25.75V26.5Z" fill="#4ECB71"/>
<path d="M3 0C1.34315 0 0 1.34315 0 3V37C0 38.6569 1.34315 40 3 40H37C38.6569 40 40 38.6569 40 37V3C40 1.34315 38.6569 0 37 0H3ZM23.25 7.75V7.75C24.0784 7.75 24.75 8.42157 24.75 9.25V14.5C24.75 14.75 24.75 15 25 15C25.0105 15 25.021 14.9996 25.0316 14.9987C25.8244 14.9321 26 13.803 26 13.0074V8.5C26 8.08579 26.3358 7.75 26.75 7.75V7.75C27.1642 7.75 27.5 8.08579 27.5 8.5V15.25C27.5 15.6642 27.1642 16 26.75 16H26.1743C26.078 16 26 15.922 26 15.8257V15.8257C26 15.6532 25.754 15.5703 25.6266 15.6865C25.1723 16.1006 24.6365 16.25 24.25 16.25V16.25C23.5102 16.25 23.0608 15.3612 23.0048 14.6235C23.0017 14.5824 23 14.5412 23 14.5V8C23 7.86193 23.1119 7.75 23.25 7.75V7.75ZM17.5 10.5C17.5 9.75 17.5 9 18 8.5C18.5 8 19 7.75 19.75 7.75C20.3183 7.75 20.7431 7.89355 21.1331 8.18065C21.3928 8.3718 21.5823 8.64309 21.7083 8.93988C21.8724 9.32625 22 9.7855 22 10.5V13.5C22 14.2145 21.8724 14.6737 21.7083 15.0601C21.5823 15.3569 21.3928 15.6282 21.1331 15.8194C20.7431 16.1065 20.3183 16.25 19.75 16.25C19 16.25 18.5 16 18 15.5C17.5 15 17.5 14.5 17.5 13.5V10.5ZM12.6907 5C13.0212 5 13.3112 5.22042 13.3997 5.53892L13.4679 5.78448C13.7585 6.83045 15.2415 6.83045 15.5321 5.78448L15.5804 5.61048C15.6806 5.24969 16.0091 5 16.3836 5V5C16.9408 5 17.3411 5.53615 17.1828 6.0704L15.6236 11.3328C15.5416 11.6095 15.5 11.8965 15.5 12.1851V15.375C15.5 15.8582 15.1082 16.25 14.625 16.25V16.25C14.1418 16.25 13.75 15.8582 13.75 15.375V12.1193C13.75 11.874 13.72 11.6297 13.6603 11.3918C13.4453 10.5346 13.2088 9.6132 12.7984 8.16996C12.7663 8.05695 12.723 7.9473 12.6726 7.84116C12.3959 7.25844 12.195 6.67572 11.9711 6.093C11.7749 5.58235 12.1436 5 12.6907 5V5ZM32 32.25C31.75 33.5 30.5 34.5 29.25 34.75C26.25 35 23 35 20 35C17 35 13.75 35 10.75 34.75C9.5 34.5 8.25 33.75 8 32.25C7.5 30.25 7.5 28.25 7.5 26.25C7.5 24.5 7.5 22.5 8 20.5C8.25 19.25 9.5 18.25 10.75 18C13.75 17.75 17 17.75 20 17.75C23 17.75 26.25 17.75 29.25 18C30.5 18.25 31.75 19 32 20.5C32.5 22.5 32.5 24.5 32.5 26.25C32.5 28.25 32.5 30.25 32 32.25Z" fill="#4C639F"/>
</svg>
