<svg width="40" height="40" viewBox="0 0 40 40" fill="none" xmlns="http://www.w3.org/2000/svg">
<rect x="0.5" y="0.5" width="39" height="39" stroke="white"/>
<path d="M16.5 0H14.25L12.75 5.75L11.25 0H8.75C9.25 1.5 9.75 2.75 10.25 4.25C11 6.25 11.5 8 11.5 9V15H13.75V9L16.5 0ZM22.5 11.25V7.5C22.5 6.25 22.25 5.5 21.75 4.75C21.25 4 20.5 3.75 19.5 3.75C18.5 3.75 17.75 4.25 17.25 5C16.75 5.5 16.5 6.25 16.5 7.5V11.5C16.5 12.75 16.75 13.5 17.25 14C17.75 14.75 18.5 15 19.5 15C20.5 15 21.25 14.5 21.75 13.75C22.25 13.5 22.5 12.5 22.5 11.25ZM20.5 11.75C20.5 12.75 20.25 13.25 19.5 13.25C18.75 13.25 18.5 12.75 18.5 11.75V7C18.5 6 18.75 5.5 19.5 5.5C20.25 5.5 20.5 6 20.5 7V11.75ZM30 15V3.75H28V12.25C27.5 13 27.25 13.25 26.75 13.25C26.5 13.25 26.25 13 26.25 12.75V3.75H24.25V12.5C24.25 13.25 24.25 13.75 24.5 14.25C24.5 14.75 25 15 25.75 15C26.5 15 27.25 14.5 28 13.75V15H30ZM31 26.25C30.25 26.25 30 26.75 30 27.75V28.75H32V27.75C32 26.75 31.75 26.25 31 26.25ZM23.75 26.25C23.5 26.25 23 26.5 22.75 26.75V33.5C23 33.75 23.5 34 23.75 34C24.25 34 24.5 33.5 24.5 32.5V27.75C24.5 26.75 24.25 26.25 23.75 26.25Z" fill="white"/>
<path d="M36 20.75C35.5 19 34 17.5 32.5 17.5C28.5 17 24.25 17 20 17C15.75 17 11.75 17 7.5 17.5C6 17.5 4.5 19 4 20.75C3.5 23.25 3.5 26 3.5 28.5C3.5 31 3.5 33.75 4 36.25C4.5 38 5.75 39.25 7.5 39.5C11.75 40 15.75 40 20 40C24.25 40 28.25 40 32.5 39.5C34.25 39.25 35.75 38 36 36.25C36.5 33.75 36.5 31 36.5 28.5C36.5 26 36.5 23.25 36 20.75ZM13 23H10.5V35.75H8.25V23H6V20.75H13V23ZM19 35.75H17V34.5C16.25 35.5 15.5 35.75 14.75 35.75C14 35.75 13.75 35.5 13.5 35C13.5 34.75 13.25 34.25 13.25 33.25V24.5H15.25V33.25C15.25 33.5 15.5 33.75 15.75 33.75C16.25 33.75 16.5 33.5 17 32.75V24.5H19V35.75ZM26.5 32.25C26.5 33.25 26.5 34 26.25 34.5C26 35.25 25.5 35.75 24.75 35.75C24 35.75 23.25 35.25 22.75 34.5V35.5H20.75V20.75H22.75V25.5C23.5 24.75 24 24.25 24.75 24.25C25.5 24.25 26 24.75 26.25 25.5C26.5 26 26.5 26.75 26.5 27.75V32.25ZM34 30.5H30V32.5C30 33.5 30.25 34 31 34C31.5 34 31.75 33.75 32 33.25V32H34V33.5C34 34 33.75 34.25 33.5 34.75C33 35.5 32.25 36 31 36C30 36 29.25 35.5 28.5 34.75C28 34.25 27.75 33.25 27.75 32.25V28.5C27.75 27.25 28 26.5 28.25 26C28.75 25.25 29.5 24.75 30.75 24.75C31.75 24.75 32.5 25.25 33 26C33.5 26.5 33.5 27.5 33.5 28.5V30.5H34Z" fill="white"/>
</svg>
